<svg width="15" height="16" viewBox="0 0 15 16" fill="none" xmlns="http://www.w3.org/2000/svg">
<path d="M13.125 4.7373C11.0438 4.53105 8.95 4.4248 6.8625 4.4248C5.625 4.4248 4.3875 4.4873 3.15 4.6123L1.875 4.7373" stroke="#C1C1C1" stroke-width="1.5" stroke-linecap="round" stroke-linejoin="round"/>
<path d="M4.61548 4.46154L4.7968 2.93473C4.92867 1.82751 5.02757 1 6.42042 1H8.57976C9.97262 1 10.0798 1.87413 10.2034 2.94639L10.3847 4.46154" stroke="#C1C1C1" stroke-width="1.5" stroke-linecap="round" stroke-linejoin="round"/>
<path d="M11.7812 6.7124L11.375 13.0062C11.3062 13.9874 11.25 14.7499 9.50625 14.7499H5.49375C3.75 14.7499 3.69375 13.9874 3.625 13.0062L3.21875 6.7124" stroke="#C1C1C1" stroke-width="1.5" stroke-linecap="round" stroke-linejoin="round"/>
<path d="M6.4563 11.3125H8.53755" stroke="#C1C1C1" stroke-width="1.5" stroke-linecap="round" stroke-linejoin="round"/>
<path d="M5.9375 8.8125H9.0625" stroke="#C1C1C1" stroke-width="1.5" stroke-linecap="round" stroke-linejoin="round"/>
</svg>
